<svg width="18" height="18" viewBox="0 0 18 18" fill="none" xmlns="http://www.w3.org/2000/svg">
<path d="M0 2.81817C0 2.01526 0.651636 1.36362 1.45455 1.36362H16.5455C17.3484 1.36362 18 2.01526 18 2.81817C18 3.62108 17.3484 4.27271 16.5455 4.27271H1.45455C0.651636 4.27271 0 3.62108 0 2.81817ZM16.5455 7.54544H1.45455C0.651636 7.54544 0 8.19708 0 8.99999C0 9.80289 0.651636 10.4545 1.45455 10.4545H16.5455C17.3484 10.4545 18 9.80289 18 8.99999C18 8.19708 17.3491 7.54544 16.5455 7.54544ZM16.5455 13.7273H1.45455C0.651636 13.7273 0 14.3789 0 15.1818C0 15.9847 0.651636 16.6363 1.45455 16.6363H16.5455C17.3484 16.6363 18 15.9847 18 15.1818C18 14.3789 17.3491 13.7273 16.5455 13.7273Z" fill="#A45C1E"/>
</svg>
