<svg xmlns="http://www.w3.org/2000/svg" width="18" height="18" viewBox="0 0 18 18" fill="none">
  <g clip-path="url(#clip0_17189_69974)">
    <path d="M10.6491 8.99996L17.6579 1.9909C18.1141 1.53499 18.1141 0.797843 17.6579 0.341933C17.202 -0.113978 16.4649 -0.113978 16.009 0.341933L8.99991 7.35099L1.99106 0.341933C1.53493 -0.113978 0.798004 -0.113978 0.342093 0.341933C-0.114031 0.797843 -0.114031 1.53499 0.342093 1.9909L7.35095 8.99996L0.342093 16.009C-0.114031 16.4649 -0.114031 17.2021 0.342093 17.658C0.569301 17.8854 0.868045 17.9997 1.16658 17.9997C1.46511 17.9997 1.76364 17.8854 1.99106 17.658L8.99991 10.6489L16.009 17.658C16.2364 17.8854 16.5349 17.9997 16.8335 17.9997C17.132 17.9997 17.4305 17.8854 17.6579 17.658C18.1141 17.2021 18.1141 16.4649 17.6579 16.009L10.6491 8.99996Z" fill="white"/>
  </g>
  <defs>
    <clipPath id="clip0_17189_69974">
      <rect width="18" height="18" fill="white"/>
    </clipPath>
  </defs>
</svg>