<svg xmlns="http://www.w3.org/2000/svg" width="18" height="18" viewBox="0 0 18 18" fill="none">
  <path d="M0 2.81807C0 2.01516 0.651636 1.36353 1.45455 1.36353H16.5455C17.3484 1.36353 18 2.01516 18 2.81807C18 3.62098 17.3484 4.27262 16.5455 4.27262H1.45455C0.651636 4.27262 0 3.62098 0 2.81807ZM16.5455 7.54534H1.45455C0.651636 7.54534 0 8.19698 0 8.99989C0 9.8028 0.651636 10.4544 1.45455 10.4544H16.5455C17.3484 10.4544 18 9.8028 18 8.99989C18 8.19698 17.3491 7.54534 16.5455 7.54534ZM16.5455 13.7272H1.45455C0.651636 13.7272 0 14.3788 0 15.1817C0 15.9846 0.651636 16.6363 1.45455 16.6363H16.5455C17.3484 16.6363 18 15.9846 18 15.1817C18 14.3788 17.3491 13.7272 16.5455 13.7272Z" fill="#8D3800"/>
</svg>