<svg width="243" height="56" viewBox="0 0 243 56" fill="none" xmlns="http://www.w3.org/2000/svg">
<g clip-path="url(#clip0_15276_70349)">
<path d="M60.1084 14.808C58.5514 14.808 57.816 13.8441 57.9048 11.9139L57.8604 11.5244C57.4557 11.0634 56.9227 10.8342 56.2614 10.8342C55.3385 10.8342 54.734 11.3247 54.4453 12.3034C54.3293 12.7077 54.2725 13.5705 54.2725 14.8942V15.2393C54.2725 16.3339 54.3293 17.1104 54.4453 17.5713C54.6476 18.4341 55.109 19.011 55.8296 19.2994C57.3003 19.7308 58.3959 20.0488 59.1164 20.2485C60.787 20.739 61.9418 21.7029 62.576 23.1425C63.0375 24.237 63.2521 25.7925 63.225 27.8065L63.1386 31.9972C63.0523 36.6045 60.861 38.9069 56.5674 38.9069H55.3139C54.5366 38.9069 53.7272 38.7048 52.8931 38.303C51.5952 37.6694 50.5662 36.7549 49.8012 35.5593C49.0363 34.3637 48.6562 33.0621 48.6562 31.6496C48.6562 29.9807 49.5051 29.1451 51.2078 29.1451C52.5625 29.1451 53.3546 29.8944 53.5865 31.3908C53.9024 33.4368 54.7537 34.4574 56.138 34.4574C57.0881 34.4574 57.6655 33.8953 57.8678 32.7737C57.8974 32.3423 57.9246 31.8098 57.9542 31.1763L57.9986 29.2757C58.0282 28.0382 57.9122 27.1163 57.6531 26.5123C57.3077 25.7062 56.6019 25.159 55.5359 24.8705C54.354 24.555 53.4607 24.3085 52.8561 24.1359C50.1763 22.9256 48.9079 20.0611 49.0511 15.5401L49.093 14.0709C49.1226 12.9468 49.3225 11.9114 49.6976 10.9624C50.8228 8.05354 52.8388 6.59912 55.7506 6.59912H57.5224C59.0202 6.59912 60.2737 7.08228 61.283 8.04614C62.2922 9.01 62.7808 10.2278 62.7537 11.6945C62.7167 13.7701 61.8382 14.808 60.1084 14.808Z" fill="#205C43"/>
<path d="M81.3793 36.2298C81.3793 37.0063 81.135 37.6472 80.6439 38.1526C80.1529 38.6555 79.5187 38.9094 78.7414 38.9094C77.9641 38.9094 77.3423 38.6579 76.8833 38.1526C76.4218 37.6497 76.1923 37.0088 76.1923 36.2298L76.4095 26.4679H72.1282L71.9111 36.2298C71.9111 37.0063 71.6519 37.6472 71.1338 38.1526C70.6156 38.6555 69.9666 38.9094 69.1893 38.9094C68.4391 38.9094 67.8494 38.6431 67.4175 38.1107C66.9857 37.5782 66.7686 36.9225 66.7686 36.146L66.8993 22.3241C66.9289 19.5878 67.2152 17.1695 67.763 15.0668C69.2041 9.59669 72.2442 6.86041 76.8857 6.86041H79.911C80.6316 6.86041 81.0782 7.20553 81.2509 7.89576C81.3077 8.12748 81.3373 8.77334 81.3373 9.83827L81.3793 36.2298ZM73.0461 13.7701C72.4638 15.0076 72.1578 16.5064 72.1307 18.2616V22.0184H76.412L76.5427 11.3075C74.9659 11.3099 73.8012 12.1284 73.0461 13.7701Z" fill="#205C43"/>
<path d="M99.8834 31.9972C99.8834 36.6045 97.6774 38.9069 93.2678 38.9069H91.5824C87.6046 38.9069 85.6157 36.5749 85.6157 31.9109L85.5713 9.88265C85.5713 7.86865 86.2351 6.86042 87.5602 6.86042H90.4127V31.1763C90.4127 33.3357 91.0173 34.4155 92.2289 34.4155H92.8779C94.319 34.4155 95.0395 33.3062 95.0395 31.09V9.2787C95.0395 8.50219 95.2986 7.86126 95.8168 7.35591C96.335 6.85303 96.984 6.59912 97.7613 6.59912C99.1727 6.59912 99.8809 7.50628 99.8809 9.32061V31.9972H99.8834Z" fill="#205C43"/>
<path d="M118.516 31.7384C118.457 36.3457 116.253 38.6481 111.901 38.6481H105.633C104.942 38.6481 104.508 38.303 104.335 37.6128C104.305 36.9225 104.293 36.2742 104.293 35.6702L104.162 9.88514C104.162 7.87115 104.826 6.86292 106.151 6.86292H112.419C116.685 6.86292 118.788 9.1678 118.731 13.7726L118.516 31.7384ZM111.755 11.31L108.962 11.2656V34.1567H111.402C112.858 34.1567 113.586 33.0917 113.586 30.9594V14.591C113.588 12.4316 112.976 11.3371 111.755 11.31Z" fill="#205C43"/>
<path d="M127.598 36.2298C127.598 37.0063 127.339 37.6473 126.821 38.1526C126.302 38.6555 125.653 38.9094 124.876 38.9094C123.551 38.9094 122.887 37.9874 122.887 36.146L122.801 9.88514C122.801 7.87115 123.465 6.86292 124.79 6.86292H127.729L127.598 36.2298Z" fill="#205C43"/>
<path d="M159.201 36.2298C159.201 37.0063 158.956 37.6472 158.465 38.1526C157.974 38.6555 157.34 38.9094 156.563 38.9094C155.785 38.9094 155.164 38.6579 154.705 38.1526C154.243 37.6497 154.014 37.0088 154.014 36.2298L154.231 26.4679H149.949L149.732 36.2298C149.732 37.0063 149.473 37.6472 148.955 38.1526C148.437 38.6555 147.788 38.9094 147.011 38.9094C146.26 38.9094 145.671 38.6431 145.239 38.1107C144.807 37.5782 144.59 36.9225 144.59 36.146L144.721 22.3241C144.75 19.5878 145.036 17.1695 145.584 15.0668C147.025 9.59669 150.065 6.86041 154.707 6.86041H157.732C158.453 6.86041 158.899 7.20553 159.072 7.89576C159.129 8.12748 159.159 8.77334 159.159 9.83827L159.201 36.2298ZM150.865 13.7701C150.283 15.0076 149.977 16.5064 149.949 18.2616V22.0184H154.231L154.362 11.3075C152.787 11.3099 151.623 12.1284 150.865 13.7701Z" fill="#205C43"/>
<path d="M178.008 15.8433C177.949 18.2049 177.115 20.1622 175.501 21.7177C177.404 22.8122 178.327 24.8853 178.267 27.9371L178.137 36.2298C178.137 37.0063 177.877 37.6472 177.359 38.1526C176.841 38.6555 176.192 38.9094 175.415 38.9094C174.665 38.9094 174.067 38.6579 173.621 38.1526C173.174 37.6497 172.95 37.0088 172.95 36.2298V28.0234C172.95 26.8426 172.905 26.0217 172.819 25.5608C172.562 24.7843 171.933 24.4096 170.934 24.4367L168.236 24.523V36.2273C168.236 37.0038 167.977 37.6448 167.459 38.1501C166.941 38.653 166.292 38.9069 165.515 38.9069C164.16 38.9069 163.481 38.0589 163.481 36.358L163.439 9.88264C163.439 7.86864 164.103 6.86041 165.428 6.86041H171.74C176.034 6.86041 178.139 9.16529 178.053 13.7701L178.008 15.8433ZM171.124 11.3099H168.454V19.9921H170.966C172.229 19.9921 172.876 18.9715 172.905 16.9255L172.95 14.5935C172.977 12.4316 172.37 11.3371 171.124 11.3099Z" fill="#205C43"/>
<path d="M196.641 36.2298C196.641 37.0063 196.397 37.6472 195.906 38.1526C195.415 38.6555 194.78 38.9094 194.003 38.9094C193.226 38.9094 192.604 38.6579 192.145 38.1526C191.684 37.6497 191.454 37.0088 191.454 36.2298L191.671 26.4679H187.39L187.173 36.2298C187.173 37.0063 186.914 37.6472 186.395 38.1526C185.877 38.6555 185.228 38.9094 184.451 38.9094C183.701 38.9094 183.111 38.6431 182.679 38.1107C182.247 37.5782 182.03 36.9225 182.03 36.146L182.161 22.3241C182.191 19.5878 182.477 17.1695 183.025 15.0668C184.466 9.59669 187.506 6.86041 192.147 6.86041H195.173C195.893 6.86041 196.34 7.20553 196.513 7.89576C196.569 8.12748 196.599 8.77334 196.599 9.83827L196.641 36.2298ZM188.305 13.7701C187.723 15.0076 187.417 16.5064 187.39 18.2616V22.0184H191.671L191.802 11.3075C190.228 11.3099 189.063 12.1284 188.305 13.7701Z" fill="#205C43"/>
<path d="M215.361 15.8433C215.302 18.2049 214.467 20.1622 212.854 21.7177C214.727 22.7826 215.649 24.8558 215.62 27.9372L215.575 31.7384C215.516 36.3457 213.327 38.6481 209.004 38.6481H202.26C201.54 38.6481 201.093 38.2882 200.92 37.5684C200.861 37.3391 200.834 36.6908 200.834 35.6259L200.792 9.88514C200.792 7.87115 201.456 6.86292 202.781 6.86292H209.093C213.387 6.86292 215.492 9.1678 215.405 13.7726L215.361 15.8433ZM210.134 25.6052C209.851 24.8287 209.229 24.4392 208.269 24.4392H205.809L205.591 34.1567H208.488C209.438 34.1567 210.031 33.6094 210.26 32.5149C210.317 32.2856 210.347 31.7655 210.347 30.9594V28.0235C210.374 26.8427 210.305 26.0366 210.134 25.6052ZM208.417 11.31H205.976L205.806 19.9921H208.271C209.51 19.9921 210.144 18.9716 210.174 16.9255V14.5935C210.201 12.4045 209.616 11.31 208.417 11.31Z" fill="#205C43"/>
<path d="M224.353 36.2298C224.353 37.0063 224.094 37.6473 223.575 38.1526C223.057 38.6555 222.408 38.9094 221.631 38.9094C220.306 38.9094 219.642 37.9874 219.642 36.146L219.556 9.88514C219.556 7.87115 220.219 6.86292 221.545 6.86292H224.483L224.353 36.2298Z" fill="#205C43"/>
<path d="M242.944 36.2298C242.944 37.0063 242.699 37.6472 242.208 38.1526C241.717 38.6555 241.083 38.9094 240.306 38.9094C239.529 38.9094 238.907 38.6579 238.448 38.1526C237.986 37.6497 237.757 37.0088 237.757 36.2298L237.974 26.4679H233.693L233.475 36.2298C233.475 37.0063 233.216 37.6472 232.698 38.1526C232.18 38.6555 231.531 38.9094 230.754 38.9094C230.004 38.9094 229.414 38.6431 228.982 38.1107C228.55 37.5782 228.333 36.9225 228.333 36.146L228.464 22.3241C228.493 19.5878 228.78 17.1695 229.327 15.0668C230.769 9.59669 233.809 6.86041 238.45 6.86041H241.475C242.196 6.86041 242.643 7.20553 242.815 7.89576C242.872 8.12748 242.902 8.77334 242.902 9.83827L242.944 36.2298ZM234.608 13.7701C234.026 15.0076 233.72 16.5064 233.693 18.2616V22.0184H237.974L238.105 11.3075C236.53 11.3099 235.366 12.1284 234.608 13.7701Z" fill="#205C43"/>
<path d="M52.6713 45.6022H48.7207V43.7311H58.833V45.6022H54.8823V55.6376H52.6689V45.6022H52.6713Z" fill="#703A0C"/>
<path d="M67.8918 46.4526V48.4765C67.7092 48.442 67.5463 48.4247 67.3983 48.4247C66.5692 48.4247 65.9226 48.6663 65.4563 49.147C64.9899 49.6301 64.7579 50.3228 64.7579 51.23V55.6352H62.6309V46.5537H64.6568V47.8799C65.2687 46.9308 66.3471 46.4526 67.8918 46.4526Z" fill="#703A0C"/>
<path d="M78.7443 47.414C79.4525 48.055 79.8079 49.0213 79.8079 50.313V55.6376H77.7992V54.5333C77.5377 54.9302 77.1675 55.2334 76.6839 55.4429C76.2002 55.6524 75.6203 55.7584 74.9393 55.7584C74.2582 55.7584 73.6635 55.6426 73.1527 55.4109C72.6419 55.1791 72.2471 54.8562 71.9707 54.4421C71.6919 54.0279 71.5537 53.5596 71.5537 53.0394C71.5537 52.2235 71.8572 51.5677 72.4643 51.0747C73.0713 50.5817 74.0287 50.3352 75.3341 50.3352H77.6832V50.1996C77.6832 49.5636 77.4932 49.078 77.1132 48.7378C76.7332 48.3976 76.1681 48.2275 75.418 48.2275C74.9072 48.2275 74.4038 48.3064 73.9103 48.4666C73.4168 48.6244 72.9997 48.8463 72.6592 49.1297L71.8251 47.5817C72.3014 47.2193 72.8739 46.9407 73.5451 46.7484C74.2138 46.5562 74.9245 46.46 75.6721 46.46C77.0121 46.4526 78.0361 46.7731 78.7443 47.414ZM76.8048 53.843C77.2193 53.599 77.5105 53.2514 77.6808 52.7978V51.7428H75.4846C74.2582 51.7428 73.6462 52.1446 73.6462 52.9507C73.6462 53.3352 73.7992 53.6434 74.1052 53.8702C74.4112 54.0969 74.8381 54.2103 75.381 54.2103C75.9164 54.2103 76.3902 54.0871 76.8048 53.843Z" fill="#703A0C"/>
<path d="M93.4284 46.5562L89.5296 55.6376H87.3334L83.4346 46.5562H85.648L88.4734 53.2908L91.3852 46.5562H93.4284Z" fill="#703A0C"/>
<path d="M105.569 51.7773H98.4352C98.5611 52.4453 98.8868 52.9753 99.4148 53.3673C99.9429 53.7592 100.599 53.954 101.382 53.954C102.381 53.954 103.203 53.6261 103.849 52.9679L104.989 54.2769C104.58 54.765 104.064 55.1323 103.44 55.3837C102.815 55.6327 102.112 55.7584 101.327 55.7584C100.328 55.7584 99.4494 55.5612 98.6894 55.1643C97.9293 54.7674 97.3421 54.2153 96.9275 53.5053C96.5129 52.7978 96.3057 51.9942 96.3057 51.0994C96.3057 50.2144 96.508 49.4182 96.9102 48.7107C97.3125 48.0032 97.8726 47.4485 98.5882 47.0516C99.3038 46.6548 100.108 46.4576 101.006 46.4576C101.892 46.4576 102.684 46.6523 103.383 47.0442C104.081 47.4362 104.626 47.9859 105.016 48.6934C105.409 49.4034 105.604 50.2218 105.604 51.1511C105.604 51.2966 105.591 51.5061 105.569 51.7773ZM99.2767 48.7575C98.8054 49.1593 98.5191 49.6967 98.4179 50.3648H103.578C103.486 49.7066 103.208 49.1741 102.744 48.7649C102.277 48.3557 101.7 48.1535 101.006 48.1535C100.325 48.1535 99.748 48.3557 99.2767 48.7575Z" fill="#703A0C"/>
<path d="M110.198 43.0187H112.325V55.6401H110.198V43.0187Z" fill="#703A0C"/>
<path d="M127.388 55.0189C126.419 54.4914 125.656 53.7642 125.106 52.8323C124.556 51.903 124.279 50.8528 124.279 49.6869C124.279 48.5209 124.558 47.4707 125.113 46.5414C125.669 45.612 126.434 44.8823 127.403 44.3548C128.373 43.8273 129.461 43.5635 130.663 43.5635C131.64 43.5635 132.531 43.7336 133.335 44.0738C134.142 44.414 134.823 44.907 135.379 45.5529L133.947 46.8963C133.084 45.967 132.023 45.5011 130.764 45.5011C129.947 45.5011 129.215 45.6786 128.568 46.036C127.921 46.3935 127.416 46.8889 127.053 47.5249C126.69 48.1609 126.508 48.8808 126.508 49.6844C126.508 50.4905 126.69 51.2103 127.053 51.8438C127.416 52.4798 127.921 52.9753 128.568 53.3328C129.215 53.6902 129.947 53.8677 130.764 53.8677C132.025 53.8677 133.086 53.3968 133.947 52.4552L135.379 53.8159C134.823 54.4618 134.137 54.9548 133.328 55.295C132.519 55.6352 131.623 55.8053 130.646 55.8053C129.444 55.8077 128.358 55.544 127.388 55.0189Z" fill="#703A0C"/>
<path d="M141.118 55.1619C140.38 54.765 139.805 54.2128 139.39 53.5028C138.976 52.7954 138.769 51.9917 138.769 51.0969C138.769 50.2021 138.976 49.4009 139.39 48.6983C139.805 47.9958 140.38 47.4461 141.118 47.0492C141.856 46.6523 142.685 46.4551 143.603 46.4551C144.533 46.4551 145.367 46.6548 146.105 47.0492C146.843 47.4461 147.418 47.9958 147.832 48.6983C148.247 49.4009 148.454 50.2021 148.454 51.0969C148.454 51.9917 148.247 52.7954 147.832 53.5028C147.418 54.2128 146.843 54.765 146.105 55.1619C145.367 55.5587 144.533 55.756 143.603 55.756C142.685 55.7584 141.856 55.5587 141.118 55.1619ZM145.545 53.1553C146.055 52.6351 146.31 51.9474 146.31 51.0969C146.31 50.2464 146.055 49.5611 145.545 49.0385C145.034 48.5159 144.387 48.2571 143.603 48.2571C142.82 48.2571 142.174 48.5184 141.67 49.0385C141.165 49.5611 140.913 50.2464 140.913 51.0969C140.913 51.9474 141.165 52.6327 141.67 53.1553C142.176 53.6779 142.82 53.9367 143.603 53.9367C144.387 53.9367 145.034 53.6779 145.545 53.1553Z" fill="#703A0C"/>
<path d="M160.97 47.4584C161.663 48.1264 162.009 49.1199 162.009 50.4338V55.6376H159.882V50.705C159.882 49.9112 159.694 49.3122 159.319 48.9103C158.944 48.5085 158.411 48.3064 157.717 48.3064C156.935 48.3064 156.316 48.543 155.862 49.0114C155.408 49.4823 155.181 50.1602 155.181 51.0451V55.6376H153.054V46.5562H155.08V47.7296C155.432 47.3105 155.874 46.9925 156.407 46.778C156.94 46.5636 157.542 46.4551 158.211 46.4551C159.358 46.4526 160.276 46.7879 160.97 47.4584Z" fill="#703A0C"/>
<path d="M167.916 55.4675C167.213 55.2753 166.65 55.0312 166.23 54.7354L167.047 53.1207C167.457 53.3919 167.945 53.6113 168.52 53.7765C169.093 53.9416 169.658 54.023 170.216 54.023C171.486 54.023 172.123 53.6877 172.123 53.0197C172.123 52.7017 171.96 52.4823 171.637 52.3566C171.314 52.2308 170.793 52.1125 170.08 51.9991C169.33 51.8857 168.72 51.7551 168.249 51.6072C167.778 51.4593 167.368 51.2029 167.023 50.8331C166.677 50.4658 166.504 49.9506 166.504 49.2949C166.504 48.4321 166.865 47.7443 167.585 47.2291C168.306 46.7139 169.28 46.4551 170.504 46.4551C171.129 46.4551 171.753 46.5266 172.377 46.6671C173.002 46.8101 173.512 46.9999 173.91 47.2365L173.093 48.8512C172.321 48.3976 171.452 48.1708 170.487 48.1708C169.863 48.1708 169.389 48.2645 169.066 48.4518C168.742 48.6392 168.58 48.8857 168.58 49.1914C168.58 49.5315 168.752 49.7731 169.098 49.9136C169.443 50.0566 169.981 50.1897 170.707 50.313C171.432 50.4264 172.029 50.557 172.493 50.7049C172.96 50.8528 173.359 51.1018 173.693 51.4543C174.028 51.8068 174.196 52.3048 174.196 52.9507C174.196 53.8011 173.826 54.4815 173.088 54.9918C172.35 55.502 171.346 55.7584 170.075 55.7584C169.34 55.7584 168.619 55.6623 167.916 55.4675Z" fill="#703A0C"/>
<path d="M187.393 46.5562V55.6376H185.367V54.4815C185.027 54.8907 184.602 55.2038 184.091 55.4256C183.581 55.6475 183.03 55.7584 182.441 55.7584C181.226 55.7584 180.269 55.4207 179.571 54.7453C178.872 54.0698 178.524 53.069 178.524 51.7428V46.5562H180.652V51.4543C180.652 52.2703 180.837 52.8792 181.204 53.2834C181.572 53.6853 182.098 53.8874 182.779 53.8874C183.539 53.8874 184.143 53.6532 184.592 53.1824C185.041 52.7115 185.266 52.0336 185.266 51.1487V46.5562H187.393Z" fill="#703A0C"/>
<path d="M192.74 43.0187H194.867V55.6401H192.74V43.0187Z" fill="#703A0C"/>
<path d="M206.122 55.1446C205.872 55.3492 205.569 55.5021 205.211 55.6031C204.853 55.7042 204.476 55.756 204.078 55.756C203.079 55.756 202.307 55.4947 201.764 54.9745C201.218 54.4544 200.947 53.6927 200.947 52.6943V48.3236H199.449V46.6227H200.947V44.5471H203.077V46.6227H205.512V48.3236H203.077V52.645C203.077 53.0862 203.185 53.424 203.4 53.6581C203.615 53.8899 203.928 54.0057 204.335 54.0057C204.811 54.0057 205.209 53.88 205.527 53.631L206.122 55.1446Z" fill="#703A0C"/>
<path d="M216.975 47.414C217.683 48.055 218.038 49.0213 218.038 50.313V55.6376H216.03V54.5333C215.768 54.9302 215.398 55.2334 214.914 55.4429C214.431 55.6524 213.851 55.7584 213.17 55.7584C212.489 55.7584 211.894 55.6426 211.383 55.4109C210.872 55.1791 210.478 54.8562 210.201 54.4421C209.922 54.0279 209.784 53.5596 209.784 53.0394C209.784 52.2235 210.088 51.5677 210.695 51.0747C211.302 50.5817 212.259 50.3352 213.565 50.3352H215.914V50.1996C215.914 49.5636 215.724 49.078 215.344 48.7378C214.964 48.3976 214.399 48.2275 213.648 48.2275C213.138 48.2275 212.634 48.3064 212.141 48.4666C211.647 48.6244 211.23 48.8463 210.89 49.1297L210.056 47.5817C210.532 47.2193 211.104 46.9407 211.776 46.7484C212.444 46.5562 213.155 46.46 213.903 46.46C215.243 46.4526 216.267 46.7731 216.975 47.414ZM215.035 53.843C215.45 53.599 215.741 53.2514 215.911 52.7978V51.7428H213.715C212.489 51.7428 211.877 52.1446 211.877 52.9507C211.877 53.3352 212.03 53.6434 212.336 53.8702C212.642 54.0969 213.069 54.2103 213.611 54.2103C214.147 54.2103 214.621 54.0871 215.035 53.843Z" fill="#703A0C"/>
<path d="M231.234 47.4584C231.928 48.1264 232.273 49.1199 232.273 50.4338V55.6376H230.146V50.705C230.146 49.9112 229.959 49.3122 229.584 48.9103C229.209 48.5085 228.676 48.3064 227.982 48.3064C227.2 48.3064 226.581 48.543 226.126 49.0114C225.672 49.4823 225.445 50.1602 225.445 51.0451V55.6376H223.318V46.5562H225.344V47.7296C225.697 47.3105 226.139 46.9925 226.672 46.778C227.205 46.5636 227.807 46.4551 228.476 46.4551C229.623 46.4526 230.541 46.7879 231.234 47.4584Z" fill="#703A0C"/>
<path d="M243.001 55.1446C242.751 55.3492 242.448 55.5021 242.09 55.6031C241.732 55.7042 241.355 55.756 240.957 55.756C239.958 55.756 239.186 55.4947 238.643 54.9745C238.097 54.4544 237.826 53.6927 237.826 52.6943V48.3236H236.328V46.6227H237.826V44.5471H239.956V46.6227H242.391V48.3236H239.956V52.645C239.956 53.0862 240.064 53.424 240.279 53.6581C240.493 53.8899 240.807 54.0057 241.214 54.0057C241.69 54.0057 242.088 53.88 242.406 53.631L243.001 55.1446Z" fill="#703A0C"/>
<path d="M33.424 20.8697C33.1378 37.5487 8.30624 37.5462 8.02246 20.8697C8.30624 4.19072 33.1402 4.19319 33.424 20.8697Z" fill="url(#paint0_linear_15276_70349)"/>
<mask id="mask0_15276_70349" style="mask-type:luminance" maskUnits="userSpaceOnUse" x="8" y="8" width="26" height="26">
<path d="M33.424 20.8697C33.1378 37.5487 8.30624 37.5462 8.02246 20.8697C8.30624 4.19072 33.1402 4.19319 33.424 20.8697Z" fill="white"/>
</mask>
<g mask="url(#mask0_15276_70349)">
<path d="M10.7863 28.3439C10.8924 29.7515 10.0608 30.9298 9.45132 32.1353C8.95286 32.3571 8.49882 32.9635 8.47168 33.4862C11.7166 33.6415 16.252 33.8855 19.3612 33.6415C19.9979 33.5774 22.1398 33.7746 22.8998 33.3111C23.0454 32.9981 22.6209 32.6579 22.8159 32.4286C23.1071 32.1673 23.3168 31.7729 23.4254 31.4007C23.418 31.2799 23.4969 30.6882 23.6573 30.9545C23.8794 31.1837 23.6869 31.5338 23.9164 31.7754C24.2347 32.0564 23.9929 32.4459 24.136 32.7663C24.1237 32.9463 23.7215 33.0991 23.8893 33.3407C25.3649 33.4615 27.0725 33.5872 28.5827 33.4418C28.7061 33.3629 28.8122 32.966 28.8023 32.8378C28.7949 32.7318 28.5432 32.6628 28.8936 32.5149C30.0879 31.2897 26.5666 29.5025 28.1632 26.5444C29.1107 24.168 28.4889 21.2543 27.1761 19.1515C26.8751 17.9535 26.6604 16.748 25.6906 15.8483C25.6141 15.6856 25.0244 14.7192 24.3359 14.416C21.856 13.7233 20.41 16.7825 18.4211 17.6996C18.0188 18.2222 18.1373 18.9617 17.4365 19.2871C15.8967 20.3841 16.0793 22.689 14.2286 23.4507C13.3304 23.993 11.6574 24.454 11.682 25.6865C11.0799 26.6134 10.579 27.1262 10.7863 28.3439Z" fill="#205B43"/>
<path d="M23.5853 30.8682C23.3805 31.0827 23.4792 31.4081 23.3361 31.6571C23.267 32.0441 22.734 32.3153 22.7735 32.653C23.6322 34.1173 19.8247 33.4812 19.3608 33.6439C18.5021 32.7294 19.5039 32.4878 19.2547 31.4845C19.0499 30.9003 18.9857 30.5995 19.2868 30.0178C19.5878 29.436 20.1874 28.6767 20.2343 28.3933C20.2812 28.1098 20.9302 28.0925 21.214 27.7449C21.4977 27.3973 21.8136 26.5765 22.0505 26.4507C22.5169 26.5641 22.9166 27.8213 23.4101 28.0925C23.647 28.1862 23.6149 28.8493 23.457 28.9454C23.1115 29.4557 23.689 30.2569 23.5853 30.8682Z" fill="#008E59"/>
<path d="M26.9591 33.3062C26.8826 33.7203 27.9535 33.5157 28.5852 33.4344C28.7086 33.3555 28.8147 32.9586 28.8048 32.8304C28.7974 32.7244 28.5457 32.6554 28.8961 32.5075C29.9054 31.6349 27.6007 29.7071 27.7808 28.5017C27.6623 27.2223 28.6469 25.6816 28.6642 24.3776C28.7111 21.6955 27.2058 19.4818 26.5593 16.9822C26.473 16.5163 25.9054 16.2821 25.6932 15.8409C25.6759 15.6338 24.2126 13.7332 23.6105 14.4086C24.1287 15.5894 22.2089 15.264 23.7857 17.6897C24.6839 18.7768 24.7037 20.2017 24.9332 21.4219C25.3058 21.735 25.7203 21.7744 25.8635 22.3217C26.0732 23.1327 25.4415 23.4581 25.3576 23.7736C25.1701 24.8287 26.2484 25.6274 26.0485 26.7342C26.1991 27.8583 25.3527 29.1599 26.1719 30.141C26.8308 31.5289 28.7284 31.9602 26.9591 33.3062Z" fill="#008E59"/>
</g>
<path fill-rule="evenodd" clip-rule="evenodd" d="M26.6008 6.4093C35.1831 8.94097 41.4434 16.8712 41.4434 26.2633C41.4434 37.0285 27.9604 47.695 20.7205 56C13.4805 47.6975 0 37.031 0 26.2633C0 16.8712 6.26279 8.94097 14.8427 6.4093C-0.644044 12.3872 3.84453 36.6045 20.723 36.3629C37.5989 36.602 42.09 12.3847 26.6008 6.4093Z" fill="url(#paint1_linear_15276_70349)"/>
<path d="M21.9444 2.29258C22.4823 2.18905 23.077 2.43309 23.4545 2.92365C23.2497 2.31477 22.7488 1.79463 22.1196 1.72807C22.4576 1.38788 22.9141 1.18821 23.346 1.23998C22.9561 0.917046 22.4354 0.857884 22.0011 1.07974C22.127 0.771605 22.3417 0.520163 22.6008 0.396907C22.2331 0.335279 21.8506 0.441279 21.5347 0.687791C21.6088 0.382116 21.7889 0.12821 22.0209 -0.00244141C21.5347 0.0443958 21.0585 0.285977 20.718 0.722302C20.3824 0.288442 19.9061 0.0468609 19.42 2.3708e-05C19.6544 0.12821 19.8321 0.384582 19.9061 0.690256C19.5927 0.443744 19.2078 0.337744 18.8401 0.399372C19.0992 0.522628 19.3164 0.77407 19.4397 1.08221C19.0054 0.860349 18.4848 0.919511 18.0949 1.24244C18.5267 1.19314 18.9832 1.39035 19.3213 1.73053C18.6921 1.79709 18.1911 2.31723 17.9863 2.92611C18.3639 2.43556 18.9586 2.19151 19.4965 2.29505C19.1708 2.5736 18.9536 3.03704 18.9314 3.5276C19.2769 2.95323 19.8469 2.60565 20.4243 2.60811L20.2861 3.52514H20.3651L20.2368 4.5383H20.3602L20.2121 5.53421C20.4638 5.53421 20.9721 5.53421 21.2238 5.53421L21.0758 4.5383H21.1992L21.0708 3.52514H21.1498L21.0116 2.60811C21.5866 2.60565 22.159 2.95323 22.5045 3.5276C22.4872 3.03458 22.2701 2.57114 21.9444 2.29258Z" fill="#205B43"/>
<path d="M24.382 6.65089C24.419 5.97051 23.4492 6.0987 23.5948 6.73716C23.1309 6.70265 22.6892 6.58926 22.2672 6.41423C22.3116 6.29098 22.3388 6.16526 22.3832 6.05186C22.4967 6.29591 22.7953 6.00996 22.6127 5.84972H22.6152C22.3289 5.65005 22.1192 6.10117 22.0353 6.31317C20.2611 5.55884 18.5066 2.92363 16.4141 4.10196C17.6503 3.63605 20.113 5.54651 21.9045 6.64596C21.865 6.75689 21.8329 6.85303 21.7786 6.94423C21.1815 6.34768 21.4924 7.97219 22.1389 6.74949C22.7558 6.91712 24.1253 7.52107 24.382 6.65089Z" fill="#205B43"/>
<path d="M17.0626 6.65089C17.0255 5.97051 17.9953 6.0987 17.8497 6.73716C18.3136 6.70265 18.7553 6.58926 19.1773 6.41423C19.1329 6.29098 19.1057 6.16526 19.0613 6.05186C18.9478 6.29591 18.6492 6.00996 18.8318 5.84972H18.8294C19.1156 5.65005 19.3254 6.10117 19.4093 6.31317C21.1835 5.55884 22.9379 2.92363 25.0305 4.10196C23.7942 3.63605 21.3315 5.54651 19.54 6.64596C19.5795 6.75689 19.6116 6.85303 19.6659 6.94423C20.263 6.34768 19.9521 7.97219 19.3056 6.74949C18.6862 6.91712 17.3192 7.52107 17.0626 6.65089Z" fill="#205B43"/>
</g>
<defs>
<linearGradient id="paint0_linear_15276_70349" x1="20.7225" y1="8.25022" x2="20.7225" y2="30.6338" gradientUnits="userSpaceOnUse">
<stop stop-color="#FCC401"/>
<stop offset="1" stop-color="#EA601D"/>
</linearGradient>
<linearGradient id="paint1_linear_15276_70349" x1="0" y1="31.2046" x2="41.4445" y2="31.2046" gradientUnits="userSpaceOnUse">
<stop stop-color="#A45C1E"/>
<stop offset="0.5" stop-color="#8C4C16"/>
<stop offset="1" stop-color="#703A0C"/>
</linearGradient>
<clipPath id="clip0_15276_70349">
<rect width="243" height="56" fill="white"/>
</clipPath>
</defs>
</svg>
