<svg width="174" height="40" viewBox="0 0 174 40" fill="none" xmlns="http://www.w3.org/2000/svg">
<g clip-path="url(#clip0_15276_71254)">
<path d="M43.0406 10.5771C41.9257 10.5771 41.3992 9.88863 41.4628 8.50993L41.431 8.23172C41.1412 7.90245 40.7595 7.7387 40.286 7.7387C39.6252 7.7387 39.1923 8.0891 38.9855 8.78813C38.9025 9.0769 38.8619 9.69318 38.8619 10.6387V10.8852C38.8619 11.667 38.9025 12.2217 38.9855 12.551C39.1304 13.1672 39.4608 13.5793 39.9768 13.7853C41.0299 14.0934 41.8144 14.3206 42.3303 14.4632C43.5266 14.8136 44.3535 15.502 44.8076 16.5304C45.138 17.3121 45.2917 18.4232 45.2723 19.8618L45.2104 22.8551C45.1486 26.1461 43.5796 27.7906 40.5051 27.7906H39.6075C39.0509 27.7906 38.4714 27.6463 37.8741 27.3592C36.9447 26.9067 36.2079 26.2535 35.6602 25.3995C35.1124 24.5455 34.8403 23.6158 34.8403 22.6069C34.8403 21.4148 35.4482 20.8179 36.6673 20.8179C37.6374 20.8179 38.2046 21.3532 38.3707 22.422C38.5968 23.8834 39.2064 24.6124 40.1977 24.6124C40.8779 24.6124 41.2914 24.2109 41.4363 23.4098C41.4575 23.1016 41.4769 22.7213 41.4981 22.2688L41.5299 20.9112C41.5511 20.0273 41.4681 19.3688 41.2826 18.9374C41.0352 18.3616 40.5298 17.9707 39.7665 17.7647C38.9202 17.5393 38.2805 17.3632 37.8476 17.24C35.9288 16.3754 35.0206 14.3294 35.123 11.1001L35.1531 10.0506C35.1743 9.2477 35.3174 8.50817 35.586 7.83026C36.3917 5.75252 37.8353 4.71365 39.9202 4.71365H41.1889C42.2614 4.71365 43.159 5.05877 43.8817 5.74724C44.6044 6.43571 44.9542 7.30554 44.9348 8.35322C44.9083 9.83581 44.2793 10.5771 43.0406 10.5771Z" fill="#205C43"/>
<path d="M58.2716 25.8784C58.2716 26.4331 58.0966 26.8909 57.745 27.2518C57.3934 27.611 56.9393 27.7924 56.3827 27.7924C55.8261 27.7924 55.3809 27.6128 55.0522 27.2518C54.7218 26.8926 54.5575 26.4348 54.5575 25.8784L54.713 18.9057H51.6473L51.4919 25.8784C51.4919 26.4331 51.3063 26.8909 50.9353 27.2518C50.5642 27.611 50.0995 27.7924 49.5429 27.7924C49.0058 27.7924 48.5835 27.6022 48.2743 27.2219C47.9651 26.8416 47.8096 26.3732 47.8096 25.8186L47.9032 15.9458C47.9244 13.9913 48.1294 12.2639 48.5216 10.762C49.5535 6.85478 51.7304 4.9003 55.054 4.9003H57.2202C57.7362 4.9003 58.056 5.14681 58.1797 5.63983C58.2203 5.80534 58.2415 6.26667 58.2415 7.02734L58.2716 25.8784ZM52.3046 9.83581C51.8876 10.7197 51.6685 11.7903 51.6491 13.044V15.7274H54.7147L54.8084 8.07677C53.6793 8.07853 52.8453 8.66312 52.3046 9.83581Z" fill="#205C43"/>
<path d="M71.5219 22.8551C71.5219 26.1461 69.9422 27.7906 66.7847 27.7906H65.5779C62.7296 27.7906 61.3055 26.1249 61.3055 22.7935L61.2737 7.05903C61.2737 5.62046 61.749 4.9003 62.6978 4.9003H64.7404V22.2688C64.7404 23.8112 65.1733 24.5825 66.0409 24.5825H66.5056C67.5374 24.5825 68.0534 23.7901 68.0534 22.2072V6.62764C68.0534 6.07299 68.2389 5.61518 68.61 5.25422C68.981 4.89501 69.4457 4.71365 70.0023 4.71365C71.013 4.71365 71.5201 5.36162 71.5201 6.65757V22.8551H71.5219Z" fill="#205C43"/>
<path d="M84.8639 22.6702C84.8215 25.9612 83.2436 27.6058 80.1268 27.6058H75.6388C75.144 27.6058 74.8331 27.3592 74.7094 26.8662C74.6882 26.3732 74.6793 25.9101 74.6793 25.4787L74.5857 7.06079C74.5857 5.62222 75.061 4.90206 76.0098 4.90206H80.4978C83.5529 4.90206 85.0583 6.5484 85.0176 9.83757L84.8639 22.6702ZM80.0225 8.07853L78.0224 8.04684V24.3976H79.7699C80.8123 24.3976 81.3336 23.6369 81.3336 22.1138V10.4222C81.3354 8.87969 80.8972 8.0979 80.0225 8.07853Z" fill="#205C43"/>
<path d="M91.3661 25.8784C91.3661 26.4331 91.1805 26.8909 90.8095 27.2518C90.4384 27.611 89.9737 27.7924 89.4171 27.7924C88.4683 27.7924 87.993 27.1339 87.993 25.8186L87.9312 7.06079C87.9312 5.62222 88.4065 4.90206 89.3553 4.90206H91.4597L91.3661 25.8784Z" fill="#205C43"/>
<path d="M113.995 25.8784C113.995 26.4331 113.82 26.8909 113.469 27.2518C113.117 27.611 112.663 27.7924 112.106 27.7924C111.55 27.7924 111.104 27.6128 110.776 27.2518C110.445 26.8926 110.281 26.4348 110.281 25.8784L110.437 18.9057H107.371L107.215 25.8784C107.215 26.4331 107.03 26.8909 106.659 27.2518C106.288 27.611 105.823 27.7924 105.267 27.7924C104.729 27.7924 104.307 27.6022 103.998 27.2219C103.689 26.8416 103.533 26.3732 103.533 25.8186L103.627 15.9458C103.648 13.9913 103.853 12.2639 104.245 10.762C105.277 6.85478 107.454 4.9003 110.778 4.9003H112.944C113.46 4.9003 113.78 5.14681 113.903 5.63983C113.944 5.80534 113.965 6.26667 113.965 7.02734L113.995 25.8784ZM108.026 9.83581C107.61 10.7197 107.39 11.7903 107.371 13.044V15.7274H110.437L110.53 8.07677C109.403 8.07853 108.569 8.66312 108.026 9.83581Z" fill="#205C43"/>
<path d="M127.463 11.3166C127.42 13.0035 126.823 14.4016 125.667 15.5126C127.03 16.2944 127.691 17.7752 127.648 19.9551L127.555 25.8784C127.555 26.4331 127.369 26.8909 126.998 27.2518C126.627 27.611 126.162 27.7924 125.606 27.7924C125.069 27.7924 124.641 27.6128 124.321 27.2518C124.001 26.8926 123.84 26.4348 123.84 25.8784V20.0167C123.84 19.1733 123.809 18.587 123.747 18.2577C123.563 17.703 123.113 17.4354 122.397 17.4548L120.466 17.5164V25.8767C120.466 26.4313 120.28 26.8891 119.909 27.2501C119.538 27.6093 119.073 27.7906 118.517 27.7906C117.547 27.7906 117.061 27.1849 117.061 25.97L117.031 7.05903C117.031 5.62046 117.506 4.9003 118.455 4.9003H122.975C126.049 4.9003 127.556 6.54664 127.495 9.83581L127.463 11.3166ZM122.533 8.07853H120.621V14.2801H122.42C123.325 14.2801 123.787 13.5511 123.809 12.0896L123.84 10.4239C123.86 8.87969 123.425 8.0979 122.533 8.07853Z" fill="#205C43"/>
<path d="M140.805 25.8784C140.805 26.4331 140.63 26.8909 140.278 27.2518C139.927 27.611 139.472 27.7924 138.916 27.7924C138.359 27.7924 137.914 27.6128 137.585 27.2518C137.255 26.8926 137.091 26.4348 137.091 25.8784L137.246 18.9057H134.181L134.025 25.8784C134.025 26.4331 133.84 26.8909 133.468 27.2518C133.097 27.611 132.633 27.7924 132.076 27.7924C131.539 27.7924 131.117 27.6022 130.807 27.2219C130.498 26.8416 130.343 26.3732 130.343 25.8186L130.436 15.9458C130.458 13.9913 130.663 12.2639 131.055 10.762C132.087 6.85478 134.264 4.9003 137.587 4.9003H139.753C140.269 4.9003 140.589 5.14681 140.713 5.63983C140.754 5.80534 140.775 6.26667 140.775 7.02734L140.805 25.8784ZM134.836 9.83581C134.419 10.7197 134.2 11.7903 134.181 13.044V15.7274H137.246L137.34 8.07677C136.213 8.07853 135.379 8.66312 134.836 9.83581Z" fill="#205C43"/>
<path d="M154.209 11.3166C154.166 13.0035 153.569 14.4015 152.414 15.5126C153.755 16.2733 154.416 17.7541 154.394 19.9551L154.363 22.6702C154.32 25.9612 152.753 27.6058 149.657 27.6058H144.828C144.312 27.6058 143.992 27.3487 143.869 26.8345C143.826 26.6708 143.807 26.2077 143.807 25.447L143.777 7.06079C143.777 5.62222 144.252 4.90206 145.201 4.90206H149.721C152.795 4.90206 154.302 6.5484 154.241 9.83757L154.209 11.3166ZM150.466 18.2894C150.263 17.7347 149.818 17.4565 149.131 17.4565H147.369L147.214 24.3976H149.288C149.968 24.3976 150.392 24.0067 150.557 23.2249C150.597 23.0611 150.618 22.6896 150.618 22.1138V20.0167C150.638 19.1733 150.588 18.5975 150.466 18.2894ZM149.237 8.07853H147.489L147.367 14.2801H149.132C150.019 14.2801 150.474 13.5511 150.495 12.0896V10.4239C150.514 8.86032 150.095 8.07853 149.237 8.07853Z" fill="#205C43"/>
<path d="M160.647 25.8784C160.647 26.4331 160.462 26.8909 160.091 27.2518C159.72 27.611 159.255 27.7924 158.698 27.7924C157.75 27.7924 157.274 27.1339 157.274 25.8186L157.212 7.06079C157.212 5.62222 157.688 4.90206 158.637 4.90206H160.741L160.647 25.8784Z" fill="#205C43"/>
<path d="M173.959 25.8784C173.959 26.4331 173.784 26.8909 173.433 27.2518C173.081 27.611 172.627 27.7924 172.07 27.7924C171.514 27.7924 171.069 27.6128 170.74 27.2518C170.41 26.8926 170.245 26.4348 170.245 25.8784L170.401 18.9057H167.335L167.18 25.8784C167.18 26.4331 166.994 26.8909 166.623 27.2518C166.252 27.611 165.787 27.7924 165.231 27.7924C164.694 27.7924 164.271 27.6022 163.962 27.2219C163.653 26.8416 163.497 26.3732 163.497 25.8186L163.591 15.9458C163.612 13.9913 163.817 12.2639 164.209 10.762C165.241 6.85478 167.418 4.9003 170.742 4.9003H172.908C173.424 4.9003 173.744 5.14681 173.867 5.63983C173.908 5.80534 173.929 6.26667 173.929 7.02734L173.959 25.8784ZM167.991 9.83581C167.574 10.7197 167.355 11.7903 167.335 13.044V15.7274H170.401L170.494 8.07677C169.367 8.07853 168.533 8.66312 167.991 9.83581Z" fill="#205C43"/>
<path d="M37.7151 32.573H34.8862V31.2365H42.1271V32.573H39.2982V39.7412H37.7133V32.573H37.7151Z" fill="#703A0C"/>
<path d="M48.6138 33.1804V34.6261C48.483 34.6014 48.3664 34.5891 48.2604 34.5891C47.6667 34.5891 47.2038 34.7616 46.8698 35.105C46.5359 35.4501 46.3698 35.9449 46.3698 36.5929V39.7394H44.8467V33.2526H46.2973V34.1999C46.7355 33.522 47.5077 33.1804 48.6138 33.1804Z" fill="#703A0C"/>
<path d="M56.3847 33.8671C56.8918 34.325 57.1462 35.0152 57.1462 35.9378V39.7412H55.7079V38.9523C55.5206 39.2358 55.2556 39.4524 54.9093 39.6021C54.563 39.7517 54.1477 39.8274 53.6601 39.8274C53.1724 39.8274 52.7466 39.7447 52.3808 39.5792C52.0151 39.4137 51.7323 39.183 51.5345 38.8872C51.3348 38.5914 51.2358 38.2568 51.2358 37.8853C51.2358 37.3025 51.4532 36.8341 51.8878 36.4819C52.3225 36.1298 53.0081 35.9537 53.9428 35.9537H55.6249V35.8568C55.6249 35.4026 55.4888 35.0557 55.2167 34.8127C54.9446 34.5697 54.54 34.4482 54.0029 34.4482C53.6371 34.4482 53.2766 34.5046 52.9233 34.619C52.5699 34.7317 52.2713 34.8902 52.0274 35.0927L51.4302 33.9869C51.7712 33.728 52.1811 33.5291 52.6618 33.3917C53.1406 33.2544 53.6495 33.1857 54.1848 33.1857C55.1443 33.1804 55.8776 33.4093 56.3847 33.8671ZM54.9959 38.4593C55.2927 38.285 55.5012 38.0367 55.6231 37.7127V36.9591H54.0506C53.1724 36.9591 52.7342 37.2461 52.7342 37.8219C52.7342 38.0966 52.8437 38.3167 53.0628 38.4787C53.2819 38.6407 53.5876 38.7217 53.9763 38.7217C54.3598 38.7217 54.699 38.6336 54.9959 38.4593Z" fill="#703A0C"/>
<path d="M66.8997 33.2544L64.108 39.7412H62.5354L59.7437 33.2544H61.3286L63.3517 38.0649L65.4367 33.2544H66.8997Z" fill="#703A0C"/>
<path d="M75.5928 36.9838H70.4846C70.5747 37.4609 70.8079 37.8395 71.186 38.1195C71.5642 38.3994 72.0342 38.5385 72.5943 38.5385C73.3099 38.5385 73.8983 38.3044 74.3612 37.8342L75.1775 38.7692C74.8842 39.1178 74.5149 39.3802 74.0679 39.5598C73.6209 39.7376 73.1173 39.8274 72.5554 39.8274C71.8398 39.8274 71.2108 39.6866 70.6666 39.4031C70.1224 39.1196 69.7018 38.7252 69.405 38.2181C69.1081 37.7127 68.9597 37.1387 68.9597 36.4995C68.9597 35.8674 69.1046 35.2987 69.3926 34.7933C69.6806 34.288 70.0817 33.8918 70.5941 33.6083C71.1065 33.3248 71.6826 33.184 72.3257 33.184C72.96 33.184 73.5272 33.3231 74.0273 33.603C74.5273 33.883 74.9178 34.2757 75.197 34.781C75.4779 35.2881 75.6175 35.8727 75.6175 36.5365C75.6175 36.6404 75.6087 36.7901 75.5928 36.9838ZM71.0871 34.8268C70.7496 35.1138 70.5447 35.4976 70.4722 35.9748H74.1669C74.1015 35.5047 73.9018 35.1244 73.5696 34.8321C73.2357 34.5398 72.8222 34.3954 72.3257 34.3954C71.838 34.3954 71.4246 34.5398 71.0871 34.8268Z" fill="#703A0C"/>
<path d="M78.9077 30.7276H80.4308V39.7429H78.9077V30.7276Z" fill="#703A0C"/>
<path d="M91.2161 39.2992C90.5217 38.9224 89.9757 38.403 89.5817 37.7374C89.1876 37.0736 88.9897 36.3235 88.9897 35.4906C88.9897 34.6577 89.1894 33.9076 89.587 33.2438C89.9845 32.58 90.5323 32.0588 91.2267 31.682C91.9211 31.3052 92.7003 31.1168 93.5608 31.1168C94.2605 31.1168 94.8984 31.2383 95.4744 31.4813C96.0522 31.7243 96.5398 32.0764 96.9374 32.5377L95.9126 33.4974C95.2941 32.8336 94.5344 32.5008 93.6332 32.5008C93.0484 32.5008 92.5236 32.6275 92.0607 32.8829C91.5977 33.1382 91.2355 33.4921 90.9758 33.9464C90.716 34.4007 90.5853 34.9148 90.5853 35.4888C90.5853 36.0646 90.716 36.5788 90.9758 37.0313C91.2355 37.4856 91.5977 37.8395 92.0607 38.0948C92.5236 38.3501 93.0484 38.4769 93.6332 38.4769C94.5361 38.4769 95.2959 38.1406 95.9126 37.468L96.9374 38.4399C96.5398 38.9013 96.0486 39.2534 95.4691 39.4964C94.8895 39.7394 94.2481 39.8609 93.5484 39.8609C92.6879 39.8627 91.9105 39.6743 91.2161 39.2992Z" fill="#703A0C"/>
<path d="M101.047 39.4013C100.519 39.1178 100.107 38.7234 99.8105 38.2163C99.5137 37.711 99.3652 37.1369 99.3652 36.4978C99.3652 35.8586 99.5137 35.2864 99.8105 34.7845C100.107 34.2827 100.519 33.89 101.047 33.6066C101.576 33.3231 102.169 33.1822 102.827 33.1822C103.493 33.1822 104.09 33.3248 104.618 33.6066C105.147 33.89 105.558 34.2827 105.855 34.7845C106.152 35.2864 106.3 35.8586 106.3 36.4978C106.3 37.1369 106.152 37.711 105.855 38.2163C105.558 38.7234 105.147 39.1178 104.618 39.4013C104.09 39.6848 103.493 39.8257 102.827 39.8257C102.169 39.8274 101.576 39.6848 101.047 39.4013ZM104.217 37.968C104.583 37.5965 104.765 37.1053 104.765 36.4978C104.765 35.8903 104.583 35.4008 104.217 35.0275C103.851 34.6542 103.389 34.4693 102.827 34.4693C102.267 34.4693 101.804 34.656 101.443 35.0275C101.081 35.4008 100.901 35.8903 100.901 36.4978C100.901 37.1053 101.081 37.5948 101.443 37.968C101.805 38.3413 102.267 38.5262 102.827 38.5262C103.389 38.5262 103.851 38.3413 104.217 37.968Z" fill="#703A0C"/>
<path d="M115.262 33.8988C115.759 34.376 116.006 35.0856 116.006 36.0241V39.7412H114.483V36.2178C114.483 35.6508 114.349 35.223 114.08 34.936C113.811 34.6489 113.43 34.5046 112.933 34.5046C112.373 34.5046 111.93 34.6736 111.605 35.0081C111.279 35.3445 111.117 35.8287 111.117 36.4608V39.7412H109.594V33.2544H111.044V34.0925C111.297 33.7932 111.613 33.5661 111.995 33.4129C112.377 33.2597 112.808 33.1822 113.287 33.1822C114.108 33.1804 114.766 33.4199 115.262 33.8988Z" fill="#703A0C"/>
<path d="M120.236 39.6197C119.733 39.4823 119.33 39.308 119.029 39.0967L119.614 37.9434C119.907 38.1371 120.257 38.2938 120.669 38.4118C121.079 38.5297 121.484 38.5878 121.883 38.5878C122.793 38.5878 123.249 38.3484 123.249 37.8712C123.249 37.6441 123.132 37.4873 122.901 37.3975C122.669 37.3077 122.296 37.2232 121.786 37.1422C121.249 37.0612 120.812 36.9679 120.475 36.8623C120.137 36.7566 119.844 36.5735 119.596 36.3094C119.349 36.047 119.225 35.679 119.225 35.2106C119.225 34.5944 119.483 34.1031 119.999 33.7351C120.515 33.3671 121.213 33.1822 122.09 33.1822C122.537 33.1822 122.984 33.2333 123.431 33.3336C123.878 33.4358 124.244 33.5713 124.528 33.7404L123.943 34.8937C123.39 34.5697 122.768 34.4077 122.077 34.4077C121.63 34.4077 121.291 34.4746 121.059 34.6084C120.828 34.7423 120.711 34.9183 120.711 35.1367C120.711 35.3797 120.835 35.5522 121.082 35.6526C121.33 35.7547 121.715 35.8498 122.234 35.9378C122.754 36.0188 123.182 36.1122 123.514 36.2178C123.848 36.3235 124.134 36.5013 124.372 36.7531C124.613 37.0049 124.733 37.3606 124.733 37.8219C124.733 38.4294 124.468 38.9154 123.94 39.2798C123.411 39.6443 122.692 39.8274 121.782 39.8274C121.256 39.8274 120.74 39.7588 120.236 39.6197Z" fill="#703A0C"/>
<path d="M134.182 33.2544V39.7412H132.732V38.9153C132.488 39.2076 132.184 39.4313 131.818 39.5897C131.452 39.7482 131.058 39.8274 130.636 39.8274C129.767 39.8274 129.081 39.5862 128.581 39.1038C128.081 38.6213 127.832 37.9064 127.832 36.9591V33.2544H129.355V36.7531C129.355 37.3359 129.488 37.7708 129.751 38.0596C130.014 38.3466 130.391 38.491 130.878 38.491C131.422 38.491 131.855 38.3237 132.177 37.9874C132.498 37.6511 132.659 37.1669 132.659 36.5348V33.2544H134.182Z" fill="#703A0C"/>
<path d="M138.011 30.7276H139.535V39.7429H138.011V30.7276Z" fill="#703A0C"/>
<path d="M147.593 39.389C147.415 39.5351 147.198 39.6443 146.941 39.7165C146.685 39.7887 146.415 39.8257 146.13 39.8257C145.415 39.8257 144.862 39.639 144.473 39.2675C144.083 38.896 143.888 38.3519 143.888 37.6388V34.5169H142.816V33.3019H143.888V31.8193H145.413V33.3019H147.157V34.5169H145.413V37.6036C145.413 37.9187 145.491 38.16 145.645 38.3272C145.798 38.4928 146.023 38.5755 146.314 38.5755C146.655 38.5755 146.94 38.4857 147.168 38.3079L147.593 39.389Z" fill="#703A0C"/>
<path d="M155.364 33.8671C155.872 34.325 156.126 35.0152 156.126 35.9378V39.7412H154.688V38.9523C154.5 39.2358 154.235 39.4524 153.889 39.6021C153.543 39.7517 153.127 39.8274 152.64 39.8274C152.152 39.8274 151.726 39.7447 151.361 39.5792C150.995 39.4137 150.712 39.183 150.514 38.8872C150.315 38.5914 150.216 38.2568 150.216 37.8853C150.216 37.3025 150.433 36.8341 150.868 36.4819C151.302 36.1298 151.988 35.9537 152.923 35.9537H154.605V35.8568C154.605 35.4026 154.469 35.0557 154.196 34.8127C153.924 34.5697 153.52 34.4482 152.983 34.4482C152.617 34.4482 152.256 34.5046 151.903 34.619C151.55 34.7317 151.251 34.8902 151.007 35.0927L150.41 33.9869C150.751 33.728 151.161 33.5291 151.641 33.3917C152.12 33.2544 152.629 33.1857 153.165 33.1857C154.124 33.1804 154.857 33.4093 155.364 33.8671ZM153.976 38.4593C154.272 38.285 154.481 38.0367 154.603 37.7127V36.9591H153.03C152.152 36.9591 151.714 37.2461 151.714 37.8219C151.714 38.0966 151.823 38.3167 152.043 38.4787C152.262 38.6407 152.567 38.7217 152.956 38.7217C153.339 38.7217 153.679 38.6336 153.976 38.4593Z" fill="#703A0C"/>
<path d="M165.576 33.8988C166.072 34.376 166.319 35.0856 166.319 36.0241V39.7412H164.796V36.2178C164.796 35.6508 164.662 35.223 164.393 34.936C164.125 34.6489 163.743 34.5046 163.247 34.5046C162.687 34.5046 162.243 34.6736 161.918 35.0081C161.593 35.3445 161.43 35.8287 161.43 36.4608V39.7412H159.907V33.2544H161.358V34.0925C161.611 33.7932 161.927 33.5661 162.308 33.4129C162.69 33.2597 163.121 33.1822 163.6 33.1822C164.422 33.1804 165.079 33.4199 165.576 33.8988Z" fill="#703A0C"/>
<path d="M174 39.389C173.822 39.5351 173.604 39.6443 173.348 39.7165C173.092 39.7887 172.822 39.8257 172.537 39.8257C171.822 39.8257 171.269 39.639 170.88 39.2675C170.489 38.896 170.295 38.3519 170.295 37.6388V34.5169H169.222V33.3019H170.295V31.8193H171.82V33.3019H173.564V34.5169H171.82V37.6036C171.82 37.9187 171.898 38.16 172.051 38.3272C172.205 38.4928 172.429 38.5755 172.721 38.5755C173.062 38.5755 173.346 38.4857 173.574 38.3079L174 39.389Z" fill="#703A0C"/>
<path d="M23.9331 14.9069C23.7282 26.8204 5.94758 26.8187 5.74438 14.9069C5.94758 2.99335 23.7299 2.99511 23.9331 14.9069Z" fill="url(#paint0_linear_15276_71254)"/>
<mask id="mask0_15276_71254" style="mask-type:luminance" maskUnits="userSpaceOnUse" x="5" y="5" width="19" height="19">
<path d="M23.9331 14.9069C23.7282 26.8204 5.94758 26.8187 5.74438 14.9069C5.94758 2.99335 23.7299 2.99511 23.9331 14.9069Z" fill="white"/>
</mask>
<g mask="url(#mask0_15276_71254)">
<path d="M7.7233 20.2456C7.79927 21.251 7.20382 22.0927 6.76739 22.9537C6.41047 23.1122 6.08535 23.5454 6.06592 23.9186C8.38943 24.0296 11.637 24.2039 13.8634 24.0296C14.3192 23.9838 15.8529 24.1247 16.3971 23.7936C16.5014 23.57 16.1975 23.327 16.3371 23.1633C16.5456 22.9766 16.6958 22.6949 16.7735 22.429C16.7682 22.3427 16.8247 21.9201 16.9396 22.1103C17.0986 22.2741 16.9608 22.5241 17.1251 22.6967C17.3531 22.8974 17.1799 23.1756 17.2824 23.4045C17.2735 23.533 16.9855 23.6422 17.1057 23.8148C18.1623 23.901 19.385 23.9908 20.4664 23.887C20.5547 23.8306 20.6307 23.5471 20.6236 23.4556C20.6183 23.3798 20.4381 23.3305 20.689 23.2249C21.5442 22.3498 19.0228 21.0732 20.166 18.9602C20.8445 17.2628 20.3992 15.1816 19.4592 13.6796C19.2437 12.8239 19.0899 11.9628 18.3955 11.3202C18.3408 11.2039 17.9185 10.5137 17.4255 10.2971C15.6497 9.80235 14.6143 11.9875 13.1902 12.6425C12.9022 13.0158 12.987 13.544 12.4852 13.7765C11.3826 14.56 11.5134 16.2064 10.1882 16.7505C9.545 17.1378 8.34702 17.4671 8.36469 18.3475C7.93356 19.0096 7.57487 19.3758 7.7233 20.2456Z" fill="#205B43"/>
<path d="M16.8883 22.0487C16.7416 22.2019 16.8123 22.4343 16.7098 22.6121C16.6603 22.8886 16.2787 23.0823 16.3069 23.3235C16.9218 24.3694 14.1955 23.9151 13.8633 24.0313C13.2484 23.3781 13.9658 23.2055 13.7873 22.4889C13.6406 22.0716 13.5947 21.8568 13.8103 21.4412C14.0258 21.0257 14.4552 20.4833 14.4888 20.2808C14.5223 20.0784 14.987 20.066 15.1902 19.8178C15.3934 19.5695 15.6196 18.9831 15.7892 18.8933C16.1232 18.9743 16.4094 19.8723 16.7628 20.066C16.9324 20.1329 16.9095 20.6066 16.7964 20.6753C16.549 21.0397 16.9625 21.612 16.8883 22.0487Z" fill="#008E59"/>
<path d="M19.3036 23.7901C19.2488 24.0859 20.0157 23.9398 20.468 23.8817C20.5564 23.8253 20.6324 23.5418 20.6253 23.4503C20.62 23.3746 20.4398 23.3253 20.6907 23.2196C21.4133 22.5963 19.763 21.2194 19.892 20.3583C19.8072 19.4445 20.5122 18.344 20.5246 17.4125C20.5581 15.4968 19.4803 13.9156 19.0174 12.1301C18.9555 11.7973 18.5491 11.6301 18.3972 11.3149C18.3848 11.167 17.337 9.80939 16.9059 10.2919C17.277 11.1353 15.9023 10.9028 17.0314 12.6355C17.6745 13.412 17.6887 14.4297 17.853 15.3013C18.1198 15.5249 18.4166 15.5531 18.5191 15.944C18.6693 16.5233 18.217 16.7557 18.1569 16.9811C18.0226 17.7347 18.7947 18.3052 18.6516 19.0958C18.7594 19.8988 18.1534 20.8285 18.74 21.5293C19.2117 22.5206 20.5705 22.8287 19.3036 23.7901Z" fill="#008E59"/>
</g>
<path fill-rule="evenodd" clip-rule="evenodd" d="M19.0475 4.57807C25.1929 6.38641 29.6756 12.0509 29.6756 18.7595C29.6756 26.4489 20.0211 34.0679 14.8369 40C9.65273 34.0696 0 26.4507 0 18.7595C0 12.0509 4.48446 6.38641 10.6281 4.57807C-0.461168 8.848 2.75287 26.1461 14.8387 25.9735C26.9227 26.1443 30.1385 8.84624 19.0475 4.57807Z" fill="url(#paint1_linear_15276_71254)"/>
<path d="M15.7133 1.63754C16.0985 1.56359 16.5243 1.73791 16.7947 2.0883C16.648 1.65339 16.2893 1.28186 15.8388 1.23432C16.0808 0.991328 16.4077 0.848704 16.7169 0.885681C16.4377 0.655016 16.0649 0.612757 15.7539 0.771229C15.8441 0.551129 15.9978 0.371528 16.1833 0.283488C15.92 0.239469 15.6462 0.315183 15.42 0.491262C15.473 0.272924 15.602 0.0915617 15.7681 -0.00176048C15.42 0.0316946 15.079 0.204253 14.8351 0.515913C14.5948 0.206013 14.2538 0.0334554 13.9057 3.13041e-07C14.0736 0.0915617 14.2008 0.274684 14.2538 0.493023C14.0294 0.316944 13.7538 0.241229 13.4905 0.285249C13.676 0.373289 13.8315 0.55289 13.9199 0.77299C13.6089 0.614518 13.2361 0.656777 12.9569 0.887441C13.2661 0.852226 13.593 0.993089 13.8351 1.23608C13.3845 1.28362 13.0258 1.65515 12.8792 2.09007C13.1495 1.73967 13.5753 1.56535 13.9605 1.6393C13.7273 1.83827 13.5718 2.1693 13.5559 2.5197C13.8033 2.10943 14.2114 1.86116 14.6249 1.86292L14.5259 2.51794H14.5825L14.4906 3.24163H14.5789L14.4729 3.95299C14.6531 3.95299 15.0171 3.95299 15.1974 3.95299L15.0913 3.24163H15.1797L15.0878 2.51794H15.1444L15.0454 1.86292C15.4571 1.86116 15.867 2.10943 16.1144 2.5197C16.102 2.16754 15.9465 1.83651 15.7133 1.63754Z" fill="#205B43"/>
<path d="M17.4591 4.75063C17.4856 4.26465 16.7912 4.35621 16.8954 4.81226C16.5632 4.7876 16.247 4.70661 15.9448 4.58159C15.9766 4.49355 15.9961 4.40375 16.0279 4.32275C16.1091 4.49707 16.3229 4.29282 16.1922 4.17837H16.194C15.989 4.03574 15.8388 4.35797 15.7787 4.5094C14.5083 3.9706 13.252 2.0883 11.7537 2.92996C12.6389 2.59717 14.4023 3.96179 15.6851 4.74711C15.6568 4.82634 15.6338 4.89501 15.595 4.96016C15.1674 4.53405 15.39 5.69441 15.8529 4.82106C16.2947 4.94079 17.2753 5.37219 17.4591 4.75063Z" fill="#205B43"/>
<path d="M12.2183 4.75063C12.1918 4.26465 12.8862 4.35621 12.7819 4.81226C13.1141 4.7876 13.4304 4.70661 13.7325 4.58159C13.7007 4.49355 13.6813 4.40375 13.6495 4.32275C13.5682 4.49707 13.3544 4.29282 13.4852 4.17837H13.4834C13.6884 4.03574 13.8385 4.35797 13.8986 4.5094C15.169 3.9706 16.4253 2.0883 17.9237 2.92996C17.0384 2.59717 15.2751 3.96179 13.9923 4.74711C14.0205 4.82634 14.0435 4.89501 14.0824 4.96016C14.51 4.53405 14.2873 5.69441 13.8244 4.82106C13.3809 4.94079 12.402 5.37219 12.2183 4.75063Z" fill="#205B43"/>
</g>
<defs>
<linearGradient id="paint0_linear_15276_71254" x1="14.8383" y1="5.893" x2="14.8383" y2="21.8813" gradientUnits="userSpaceOnUse">
<stop stop-color="#FCC401"/>
<stop offset="1" stop-color="#EA601D"/>
</linearGradient>
<linearGradient id="paint1_linear_15276_71254" x1="0" y1="22.289" x2="29.6763" y2="22.289" gradientUnits="userSpaceOnUse">
<stop stop-color="#A45C1E"/>
<stop offset="0.5" stop-color="#8C4C16"/>
<stop offset="1" stop-color="#703A0C"/>
</linearGradient>
<clipPath id="clip0_15276_71254">
<rect width="174" height="40" fill="white"/>
</clipPath>
</defs>
</svg>
